HIERARCHY
ROOT Hips
{
	OFFSET -0.001795 -0.223333 0.028219
	CHANNELS 6 Xposition Yposition Zposition Zrotation Yrotation Xrotation 
	JOINT LeftUpLeg
	{
		OFFSET 0.069520 -0.091406 -0.006815
		CHANNELS 3 Zrotation Yrotation Xrotation
		JOINT LeftLeg
		{
			OFFSET 0.034277 -0.375199 -0.004496
			CHANNELS 3 Zrotation Yrotation Xrotation
			JOINT LeftFoot
			{
				OFFSET -0.013596 -0.397961 -0.043693
				CHANNELS 3 Zrotation Yrotation Xrotation
				JOINT LeftToe
				{
					OFFSET 0.026358 -0.055791 0.119288
					CHANNELS 3 Zrotation Yrotation Xrotation
					End Site
					{
						OFFSET 0.000000 0.000000 0.000000
					}
				}
			}
		}
	}
	JOINT RightUpLeg
	{
		OFFSET -0.067670 -0.090522 -0.004320
		CHANNELS 3 Zrotation Yrotation Xrotation
		JOINT RightLeg
		{
			OFFSET -0.038290 -0.382569 -0.008850
			CHANNELS 3 Zrotation Yrotation Xrotation
			JOINT RightFoot
			{
				OFFSET 0.015774 -0.398415 -0.042312
				CHANNELS 3 Zrotation Yrotation Xrotation
				JOINT RightToe
				{
					OFFSET -0.025372 -0.048144 0.123348
					CHANNELS 3 Zrotation Yrotation Xrotation
					End Site
					{
						OFFSET 0.000000 0.000000 0.000000
					}
				}
			}
		}
	}
	JOINT Spine
	{
		OFFSET -0.002533 0.108963 -0.026696
		CHANNELS 3 Zrotation Yrotation Xrotation
		JOINT Spine1
		{
			OFFSET 0.005487 0.135180 0.001092
			CHANNELS 3 Zrotation Yrotation Xrotation
			JOINT Spine2
			{
				OFFSET 0.001457 0.052922 0.025425
				CHANNELS 3 Zrotation Yrotation Xrotation
				JOINT Neck
				{
					OFFSET -0.002778 0.213870 -0.042857
					CHANNELS 3 Zrotation Yrotation Xrotation
					JOINT Head
					{
						OFFSET 0.005152 0.064970 0.051349
						CHANNELS 3 Zrotation Yrotation Xrotation
						End Site
						{
							OFFSET 0.000000 0.000000 0.000000
						}
					}
				}
				JOINT LeftShoulder
				{
					OFFSET 0.078845 0.121749 -0.034090
					CHANNELS 3 Zrotation Yrotation Xrotation
					JOINT LeftArm
					{
						OFFSET 0.090977 0.030469 -0.008868
						CHANNELS 3 Zrotation Yrotation Xrotation
						JOINT LeftForeArm
						{
							OFFSET 0.259612 -0.012772 -0.027456
							CHANNELS 3 Zrotation Yrotation Xrotation
							JOINT LeftHand
							{
								OFFSET 0.249234 0.008986 -0.001171
								CHANNELS 3 Zrotation Yrotation Xrotation
								End Site
								{
									OFFSET 0.000000 0.000000 0.000000
								}
							}
						}
					}
				}
				JOINT RightShoulder
				{
					OFFSET -0.081759 0.118833 -0.038615
					CHANNELS 3 Zrotation Yrotation Xrotation
					JOINT RightArm
					{
						OFFSET -0.096012 0.032551 -0.009143
						CHANNELS 3 Zrotation Yrotation Xrotation
						JOINT RightForeArm
						{
							OFFSET -0.253742 -0.013329 -0.021401
							CHANNELS 3 Zrotation Yrotation Xrotation
							JOINT RightHand
							{
								OFFSET -0.255298 0.007772 -0.005559
								CHANNELS 3 Zrotation Yrotation Xrotation
								End Site
								{
									OFFSET 0.000000 0.000000 0.000000
								}
							}
						}
					}
				}
			}
		}
	}
}
MOTION
Frames: 10
Frame Time: 0.050000
0.001421 0.951214 -0.026605 2.282097 0.030072 10.722685 5.652317 -0.660360 -10.497064 -1.320974 0.142092 -0.131321 0.207009 5.204935 12.958772 0.000000 0.000000 0.000000 -4.409044 0.720638 -8.061608 -6.541453 0.077990 -5.998372 -3.146165 -11.340697 14.373539 0.000000 0.000000 0.000000 5.352403 0.381569 -7.232953 0.548027 -0.123793 -4.046535 -7.559169 1.311154 2.618202 11.326016 -6.812736 -9.254724 0.000000 0.000000 0.000000 -2.032738 -1.218409 0.159447 -60.533937 -44.444644 17.351193 177.200218 -80.507316 -172.661908 0.000000 0.000000 0.000000 4.070173 -15.104471 -6.105624 80.829581 14.453715 4.342434 -165.171709 66.450383 -149.408495 0.000000 0.000000 0.000000 
0.000980 0.951658 -0.027319 2.122913 -0.803202 10.747279 5.726019 -0.627107 -10.095959 -1.356320 0.162044 -0.771711 0.715329 6.049771 13.443393 0.000000 0.000000 0.000000 -4.120263 0.757161 -8.432660 -6.623818 0.087255 -5.889812 -2.698072 -10.691604 14.470314 0.000000 0.000000 0.000000 5.576160 0.347481 -6.718811 0.660426 -0.168492 -4.384422 -7.624423 1.900970 2.690283 11.854459 -7.201437 -9.153062 0.000000 0.000000 0.000000 -2.473972 -0.227708 -0.248846 -60.666138 -39.803238 14.498648 -165.244937 -80.712630 166.533009 0.000000 0.000000 0.000000 3.781102 -16.213789 -6.473297 81.591164 13.289142 3.557680 -170.577154 66.502056 -157.541272 0.000000 0.000000 0.000000 
0.000544 0.951946 -0.028001 1.871644 -1.078177 10.754133 5.854155 -0.615501 -10.072950 -1.200867 0.150861 -0.939235 0.695807 5.971830 13.415713 0.000000 0.000000 0.000000 -3.664480 0.784543 -8.658537 -6.795602 0.106220 -5.763829 -2.171989 -9.766129 14.299472 0.000000 0.000000 0.000000 5.800068 0.326479 -6.439321 0.543444 -0.127657 -4.196650 -7.620253 1.585833 2.665022 11.954616 -7.270753 -9.239496 0.000000 0.000000 0.000000 -2.803640 1.456164 -0.878890 -62.021186 -35.850319 12.590238 -150.409386 -80.074183 149.121399 0.000000 0.000000 0.000000 2.936813 -16.735678 -6.482151 82.637155 12.124679 2.567344 -175.348038 66.522231 -165.210671 0.000000 0.000000 0.000000 
0.000169 0.952263 -0.028625 1.738932 -1.633719 10.788220 5.827186 -0.592684 -9.659422 -1.089561 0.155024 -1.524937 1.161329 6.788941 13.999546 0.000000 0.000000 0.000000 -3.513655 0.808181 -8.885206 -6.702937 0.105344 -5.686538 -1.592527 -8.842593 14.404878 0.000000 0.000000 0.000000 5.704658 0.299630 -6.105526 0.658176 -0.163715 -4.805188 -7.447005 1.417482 2.994806 12.190451 -7.420546 -9.471337 0.000000 0.000000 0.000000 -2.566178 2.104523 -1.062768 -63.253334 -32.612946 10.985367 -145.123896 -80.038792 143.268496 0.000000 0.000000 0.000000 2.067734 -17.573308 -6.586419 83.646985 10.907386 1.431666 179.414538 66.488285 -173.577736 0.000000 0.000000 0.000000 
-0.000111 0.952420 -0.029350 1.649143 -2.071847 10.705651 5.944399 -0.570285 -9.414090 -1.126623 0.158659 -1.492534 1.321877 6.932625 13.793341 0.000000 0.000000 0.000000 -3.538790 0.831675 -9.184927 -6.514291 0.139647 -5.200680 -1.217028 -8.137969 14.028238 0.000000 0.000000 0.000000 5.616239 0.278673 -5.838443 0.672939 -0.168421 -5.011665 -7.450268 1.068491 3.345537 11.983763 -7.350473 -9.375198 0.000000 0.000000 0.000000 -2.660122 2.899942 -1.345227 -65.123722 -30.996671 10.497855 -143.171611 -81.015549 142.025754 0.000000 0.000000 0.000000 2.106060 -17.705452 -6.637807 84.409816 10.243371 0.628856 174.907971 66.352289 179.150173 0.000000 0.000000 0.000000 
-0.000383 0.952426 -0.030372 1.397789 -2.958728 10.589307 6.019165 -0.536821 -8.995710 -0.928710 0.148318 -1.781396 1.831739 7.661276 13.964344 0.000000 0.000000 0.000000 -3.368990 0.859422 -9.422099 -6.313290 0.142912 -4.985517 -0.612662 -7.115174 13.799186 0.000000 0.000000 0.000000 5.609652 0.256489 -5.507376 0.712235 -0.193678 -5.059805 -7.240566 1.082694 3.360790 12.278687 -7.630513 -9.160336 0.000000 0.000000 0.000000 -2.482810 3.529552 -1.536488 -66.697196 -29.524628 10.001039 -148.926368 -81.596035 149.192518 0.000000 0.000000 0.000000 1.920188 -18.097404 -6.723389 85.355143 9.750346 0.024395 172.223008 66.596732 174.719909 0.000000 0.000000 0.000000 
-0.000787 0.952437 -0.031525 1.106063 -3.507134 10.517675 6.256793 -0.502446 -8.595407 -0.903843 0.152248 -1.995630 2.083150 7.980864 13.952660 0.000000 0.000000 0.000000 -3.132657 0.896037 -9.779931 -6.020452 0.159316 -4.590999 -0.318709 -6.640432 13.706395 0.000000 0.000000 0.000000 5.610756 0.241312 -5.286384 0.595088 -0.145588 -5.320956 -7.109054 0.850804 3.660123 12.449644 -7.947563 -8.505043 0.000000 0.000000 0.000000 -2.445049 4.291355 -1.794408 -68.090396 -28.729001 9.876809 -153.066494 -82.760486 154.800942 0.000000 0.000000 0.000000 2.001020 -18.273901 -6.801540 86.721415 10.018793 -0.007996 170.883402 68.426883 172.719074 0.000000 0.000000 0.000000 
-0.001258 0.952311 -0.032589 0.885273 -4.215146 10.490656 6.647067 -0.468696 -8.477563 -1.270905 0.188278 -1.973657 2.645235 8.700215 13.550103 0.000000 0.000000 0.000000 -3.063035 0.916509 -9.951019 -5.941681 0.142887 -4.667887 -0.002522 -6.233663 13.882384 0.000000 0.000000 0.000000 5.542613 0.247601 -5.308736 0.626406 -0.171222 -5.108266 -7.099565 1.167326 3.748803 12.845833 -8.441317 -7.661910 0.000000 0.000000 0.000000 -2.274642 5.155281 -2.080871 -68.885164 -26.977349 8.868523 -149.909542 -82.215513 151.047449 0.000000 0.000000 0.000000 2.296677 -18.468602 -6.950838 87.793338 9.977557 -0.076298 167.950785 70.999683 168.931663 0.000000 0.000000 0.000000 
-0.001651 0.952328 -0.033240 0.632442 -4.855374 10.385815 6.815894 -0.438630 -8.129393 -1.275354 0.193048 -2.103466 2.880647 9.004933 13.612012 0.000000 0.000000 0.000000 -2.757713 0.942166 -10.118240 -6.030041 0.147958 -4.616974 0.584426 -5.441607 14.361905 0.000000 0.000000 0.000000 5.466406 0.232243 -5.085964 0.406673 -0.095353 -4.741383 -6.755020 1.433226 3.567666 13.149709 -8.750868 -7.265527 0.000000 0.000000 0.000000 -2.621411 6.669625 -2.680242 -68.206453 -23.638207 6.588465 -148.232681 -79.306407 147.610536 0.000000 0.000000 0.000000 2.837959 -18.835116 -7.227583 88.010334 9.629816 -0.437927 163.735153 74.613825 164.036152 0.000000 0.000000 0.000000 
-0.001837 0.952363 -0.033568 0.579758 -5.592637 10.423533 7.064086 -0.415920 -8.218283 -1.629576 0.226773 -1.951807 3.276382 9.476536 13.197958 0.000000 0.000000 0.000000 -2.713039 0.953627 -10.180441 -6.025808 0.121277 -4.858338 1.018143 -4.825323 14.491789 0.000000 0.000000 0.000000 5.392786 0.241039 -5.133947 0.034496 0.048366 -4.548249 -6.538945 1.896868 3.812867 13.575281 -9.011298 -7.523089 0.000000 0.000000 0.000000 -2.787324 8.608105 -3.415916 -66.999209 -20.065466 4.127088 -145.630144 -76.164183 142.631723 0.000000 0.000000 0.000000 2.730241 -19.354561 -7.394836 88.198164 8.293609 -1.634684 154.522031 76.028864 152.781704 0.000000 0.000000 0.000000 
